HIERARCHY
ROOT Hips
{
	OFFSET 0.000000 0.000000 0.000000
	CHANNELS 6 Xposition Yposition Zposition Xrotation Yrotation Zrotation
	JOINT LeftUpLeg_virtual
	{
		OFFSET 0.000000 0.000000 0.000000
		CHANNELS 3 Xrotation Yrotation Zrotation
		JOINT LeftUpLeg
		{
			OFFSET 10.205400 -3.823500 0.155100
			CHANNELS 3 Xrotation Yrotation Zrotation
			JOINT LeftLeg
			{
				OFFSET 0.708757 -12.982077 0.567790
				CHANNELS 3 Xrotation Yrotation Zrotation
				JOINT LeftFoot
				{
					OFFSET -0.708756 -10.717838 -2.184338
					CHANNELS 3 Xrotation Yrotation Zrotation
					JOINT LeftToeBase
					{
						OFFSET 0.108149 -7.191104 7.560241
						CHANNELS 3 Xrotation Yrotation Zrotation
						JOINT LeftToe_End
						{
							OFFSET 0.070230 0.081724 4.490308
							CHANNELS 3 Xrotation Yrotation Zrotation
							End Site
							{
								OFFSET 0 0 0
							}
						}
					}
				}
			}
		}
	}
	JOINT RightUpLeg_virtual
	{
		OFFSET 0.000000 0.000000 0.000000
		CHANNELS 3 Xrotation Yrotation Zrotation
		JOINT RightUpLeg
		{
			OFFSET -10.205400 -3.823500 0.005500
			CHANNELS 3 Xrotation Yrotation Zrotation
			JOINT RightLeg
			{
				OFFSET -0.708756 -12.982134 0.610632
				CHANNELS 3 Xrotation Yrotation Zrotation
				JOINT RightFoot
				{
					OFFSET 0.708754 -10.717769 -1.945823
					CHANNELS 3 Xrotation Yrotation Zrotation
					JOINT RightToeBase
					{
						OFFSET -0.108140 -7.191069 7.372968
						CHANNELS 3 Xrotation Yrotation Zrotation
						JOINT RightToe_End
						{
							OFFSET -0.070227 0.081735 4.479403
							CHANNELS 3 Xrotation Yrotation Zrotation
							End Site
							{
								OFFSET 0 0 0
							}
						}
					}
				}
			}
		}
	}
	JOINT Spine_virtual
	{
		OFFSET 0.000000 0.000000 0.000000
		CHANNELS 3 Xrotation Yrotation Zrotation
		JOINT Spine
		{
			OFFSET 0.000000 6.876099 0.125700
			CHANNELS 3 Xrotation Yrotation Zrotation
			JOINT Spine1
			{
				OFFSET 0.000000 5.730043 0.104720
				CHANNELS 3 Xrotation Yrotation Zrotation
				JOINT Spine1_split
				{
					OFFSET 0.000000 5.730043 0.104720
					CHANNELS 3 Xrotation Yrotation Zrotation
					JOINT Spine2
					{
						OFFSET 0.000000 5.730043 0.104720
						CHANNELS 3 Xrotation Yrotation Zrotation
						JOINT Neck_virtual
						{
							OFFSET 0.000000 0.000000 0.000000
							CHANNELS 3 Xrotation Yrotation Zrotation
							JOINT Neck
							{
								OFFSET 0.000000 10.314075 0.188496
								CHANNELS 3 Xrotation Yrotation Zrotation
								JOINT Head
								{
									OFFSET 0.000000 7.643700 -2.377400
									CHANNELS 3 Xrotation Yrotation Zrotation
									JOINT HeadTop_End
									{
										OFFSET 0.000000 43.788605 -13.619600
										CHANNELS 3 Xrotation Yrotation Zrotation
										End Site
										{
											OFFSET 0 0 0
										}
									}
								}
							}
						}
						JOINT LeftShoulder_virtual
						{
							OFFSET 0.000000 0.000000 0.000000
							CHANNELS 3 Xrotation Yrotation Zrotation
							JOINT LeftShoulder
							{
								OFFSET 2.196100 4.412489 0.087492
								CHANNELS 3 Xrotation Yrotation Zrotation
								JOINT LeftShoulder_split
								{
									OFFSET 2.196100 4.412489 0.087492
									CHANNELS 3 Xrotation Yrotation Zrotation
									JOINT LeftArm
									{
										OFFSET 8.771219 -2.981674 -0.026999
										CHANNELS 3 Xrotation Yrotation Zrotation
										JOINT LeftForeArm
										{
											OFFSET 8.512804 0.000000 -0.000000
											CHANNELS 3 Xrotation Yrotation Zrotation
											JOINT LeftHand
											{
												OFFSET 18.484802 0.000000 -0.000000
												CHANNELS 3 Xrotation Yrotation Zrotation
												End Site
												{
													OFFSET 0 0 0
												}
											}
										}
									}
								}
							}
						}
						JOINT RightShoulder_virtual
						{
							OFFSET 0.000000 0.000000 0.000000
							CHANNELS 3 Xrotation Yrotation Zrotation
							JOINT RightShoulder
							{
								OFFSET -2.196100 4.412496 0.070690
								CHANNELS 3 Xrotation Yrotation Zrotation
								JOINT RightShoulder_split
								{
									OFFSET -2.196100 4.412496 0.070690
									CHANNELS 3 Xrotation Yrotation Zrotation
									JOINT RightArm
									{
										OFFSET -8.771282 -2.981682 -0.094208
										CHANNELS 3 Xrotation Yrotation Zrotation
										JOINT RightForeArm
										{
											OFFSET -8.494598 0.000000 0.000000
											CHANNELS 3 Xrotation Yrotation Zrotation
											JOINT RightHand
											{
												OFFSET -18.483803 0.000000 0.000001
												CHANNELS 3 Xrotation Yrotation Zrotation
												End Site
												{
													OFFSET 0 0 0
												}
											}
										}
									}
								}
							}
						}
					}
				}
			}
		}
	}
}
MOTION
Frames: 11
Frame Time: 0.03333333
4.287252 4.971928 85.351364 0.000000 0.000000 0.000000 -95.846371 -0.243999 0.077958 -30.824309 -50.005137 51.763825 104.799636 -30.207188 -1.967358 3.944761 -3.043266 -27.357662 -5.469153 0.460697 -2.677367 0.000000 0.000000 0.000000 -99.973301 3.845855 2.898827 -44.605609 19.264882 -31.389538 97.429554 16.379463 -1.895664 5.280719 -0.049814 23.344634 10.652657 1.056240 2.612421 0.000000 0.000000 0.000000 -97.509550 2.903601 0.931578 6.294763 -0.941112 3.062339 2.057890 -0.330959 0.167327 0.571476 -0.951755 -0.100733 0.000000 0.000000 0.000000 0.945310 -0.650974 0.848533 10.257441 -1.561128 1.227311 20.542436 0.353872 1.071945 0.000000 0.000000 0.000000 -0.085618 -0.256848 0.241403 -0.053556 -15.927446 -5.375857 -3.832597 5.008129 -2.234473 67.112100 -22.229197 -38.922755 -0.409830 -38.539250 -0.717662 0.000000 0.000000 0.000000 0.094002 -1.038825 0.225951 -2.141953 3.938182 16.783049 9.133594 6.491847 -3.786198 71.226053 26.338464 23.388379 -0.072648 23.298923 -0.163874 0.000000 0.000000 0.000000 
4.397905 4.988060 85.365021 0.000000 0.000000 0.000000 -95.780235 -0.093563 0.175324 -31.525633 -51.068775 50.443331 104.930195 -29.638728 -1.751759 4.231911 -2.924502 -27.154411 -5.710747 0.423133 -2.620915 0.000000 0.000000 0.000000 -99.856812 3.721946 2.701732 -44.813844 17.447030 -31.496758 96.735546 15.915594 -2.293689 3.986053 0.066181 23.708772 10.304669 1.258299 2.207603 0.000000 0.000000 0.000000 -97.357967 2.779582 0.689885 6.642406 -0.984280 2.786148 2.227939 -0.321118 0.174239 0.541403 -0.811971 -0.070525 0.000000 0.000000 0.000000 1.118599 -0.637058 0.805279 10.900771 -2.159158 1.226340 22.180139 -0.607205 1.128123 0.000000 0.000000 0.000000 0.013966 -0.227632 0.292546 0.094665 -16.161133 -5.730834 -3.225108 5.403420 -2.230580 66.465903 -21.312567 -39.280035 -0.800518 -39.566248 -0.991737 0.000000 0.000000 0.000000 0.208099 -1.036385 0.179776 -2.416665 3.568243 17.317216 9.670461 6.298219 -3.838728 69.498855 25.674514 23.489886 -0.233125 23.521092 0.113907 0.000000 0.000000 0.000000 
4.503175 5.021252 85.408028 0.000000 0.000000 0.000000 -95.591933 -0.039375 0.150678 -32.243493 -51.886563 49.366278 105.158993 -28.947841 -1.592846 4.542119 -2.881752 -26.812041 -6.304381 0.350512 -2.442899 0.000000 0.000000 0.000000 -99.614190 3.541072 2.462614 -44.611258 15.261248 -31.771660 95.884648 15.495783 -2.527311 2.281048 0.227924 23.954158 10.137149 1.385978 1.703183 0.000000 0.000000 0.000000 -97.251505 2.588405 0.410889 7.135576 -1.037853 2.463085 2.494116 -0.329182 0.181925 0.708194 -0.802935 -0.158051 0.000000 0.000000 0.000000 1.325684 -0.659199 0.762056 11.628653 -2.672598 1.100776 23.619561 -1.477118 1.069647 0.000000 0.000000 0.000000 0.187281 -0.238058 0.319775 0.288769 -15.996341 -6.064728 -2.481942 5.507345 -2.161789 65.696140 -20.263662 -39.175096 -1.570429 -40.106266 -1.458924 0.000000 0.000000 0.000000 0.413160 -1.064597 0.109524 -2.650929 3.296124 17.634213 10.164095 6.190624 -3.931052 67.228241 25.001890 24.137209 -0.455887 23.936719 0.370336 0.000000 0.000000 0.000000 
4.582518 5.071165 85.457626 0.000000 0.000000 0.000000 -95.319053 -0.115471 -0.049290 -33.280609 -52.501335 48.356558 105.687390 -28.309982 -1.402305 5.012786 -3.113971 -26.408342 -7.089235 0.239272 -2.211387 0.000000 0.000000 0.000000 -99.315643 3.367414 2.227823 -43.941250 12.780081 -32.132717 94.698804 15.088018 -2.593467 0.339291 0.364228 24.164038 10.110905 1.413964 1.149636 0.000000 0.000000 0.000000 -97.181311 2.363903 0.144947 7.713370 -1.123492 2.138235 2.852469 -0.348902 0.205522 0.882260 -0.887322 -0.231053 0.000000 0.000000 0.000000 1.586562 -0.716321 0.741082 12.462192 -3.090144 0.883365 24.882898 -2.209107 0.961487 0.000000 0.000000 0.000000 0.450035 -0.281983 0.339963 0.527520 -15.366314 -6.506741 -1.630481 5.319809 -1.960968 64.689125 -19.180088 -38.483492 -2.491664 -40.266417 -1.949648 0.000000 0.000000 0.000000 0.729006 -1.117757 0.047898 -2.865171 3.266534 17.913264 10.464890 6.235437 -4.048371 64.731328 24.377130 25.185757 -0.659101 24.329494 0.555802 0.000000 0.000000 0.000000 
4.640265 5.153831 85.508514 0.000000 0.000000 0.000000 -95.040505 -0.273809 -0.379648 -34.881633 -52.940154 47.113176 106.550958 -27.800294 -1.190572 5.594078 -3.542105 -25.854776 -7.752215 0.115085 -2.065052 0.000000 0.000000 0.000000 -99.023844 3.237724 2.003240 -42.815300 10.115372 -32.481969 92.941847 14.731798 -2.588604 -1.609858 0.450872 24.446550 10.217161 1.357320 0.598220 0.000000 0.000000 0.000000 -97.077684 2.124704 -0.140662 8.284769 -1.229985 1.883789 3.259174 -0.369311 0.243728 0.934580 -1.067446 -0.394939 0.000000 0.000000 0.000000 1.914119 -0.799406 0.732355 13.366963 -3.376345 0.620089 25.981249 -2.831960 0.884306 0.000000 0.000000 0.000000 0.788614 -0.340437 0.358428 0.810561 -14.153938 -7.177377 -0.664425 4.802199 -1.667632 63.530342 -18.191061 -37.168117 -3.327592 -40.410623 -2.337883 0.000000 0.000000 0.000000 1.147416 -1.195320 0.006291 -3.081874 3.565034 18.282571 10.471495 6.378941 -4.030562 62.281988 23.814295 26.303760 -0.796727 24.473823 0.659329 0.000000 0.000000 0.000000 
4.698915 5.259668 85.548698 0.000000 0.000000 0.000000 -94.737360 -0.428703 -0.731514 -37.062864 -53.253394 45.442908 107.649170 -27.340773 -0.994056 6.106968 -3.977471 -25.166896 -7.997930 0.012334 -2.130451 0.000000 0.000000 0.000000 -98.636340 3.192491 1.791629 -41.308386 7.431750 -32.786834 90.529076 14.390737 -2.511087 -3.382248 0.456014 24.842662 10.412734 1.232610 0.137105 0.000000 0.000000 0.000000 -96.876869 1.904366 -0.446591 8.801129 -1.332947 1.748043 3.690790 -0.377123 0.280050 0.817217 -1.228876 -0.454298 0.000000 0.000000 0.000000 2.307868 -0.891799 0.730809 14.258861 -3.540077 0.374917 27.001273 -3.322470 0.861784 0.000000 0.000000 0.000000 1.190364 -0.398814 0.361347 1.152396 -12.357991 -8.143049 0.308870 4.040122 -1.293611 62.262085 -17.440724 -35.278668 -3.968173 -40.653440 -2.592158 0.000000 0.000000 0.000000 1.650002 -1.277000 -0.024982 -3.311231 4.150621 18.770666 10.197900 6.556631 -3.963911 60.070920 23.258975 27.141169 -0.866950 24.361038 0.692228 0.000000 0.000000 0.000000 
4.778718 5.377884 85.548203 0.000000 0.000000 0.000000 -94.457083 -0.588465 -1.108727 -39.625814 -53.424886 43.318327 108.785994 -26.833447 -0.888210 6.423644 -4.268380 -24.320948 -8.071699 -0.050803 -2.313971 0.000000 0.000000 0.000000 -98.228625 3.260757 1.625601 -39.503222 4.862215 -32.980692 87.604361 14.041343 -2.395417 -4.839108 0.375901 25.291996 10.585334 1.043421 -0.194417 0.000000 0.000000 0.000000 -96.522177 1.734865 -0.728362 9.258759 -1.391159 1.741118 4.146862 -0.358936 0.291856 0.599967 -1.354292 -0.500197 0.000000 0.000000 0.000000 2.748523 -0.979848 0.715088 15.036581 -3.607253 0.202309 28.006250 -3.685314 0.909741 0.000000 0.000000 0.000000 1.644314 -0.461079 0.327235 1.610695 -10.031836 -9.370544 1.192488 3.247635 -0.962076 60.943886 -16.983071 -32.848145 -4.407076 -40.852956 -2.779063 0.000000 0.000000 0.000000 2.199730 -1.343338 -0.055651 -3.535274 4.945833 19.362365 9.681495 6.785506 -3.908773 58.009814 22.569349 27.618626 -0.901828 24.245648 0.719578 0.000000 0.000000 0.000000 
4.882058 5.496359 85.519211 0.000000 0.000000 0.000000 -94.142990 -0.743912 -1.467239 -42.452832 -53.391121 40.824396 109.836825 -26.210682 -0.884270 6.444671 -4.357649 -23.269124 -8.155308 -0.076591 -2.550012 0.000000 0.000000 0.000000 -97.760805 3.382186 1.478144 -37.603490 2.525572 -33.030406 84.381065 13.665421 -2.251023 -5.856838 0.229625 25.783990 10.593114 0.820980 -0.406454 0.000000 0.000000 0.000000 -95.960326 1.628412 -0.999396 9.674200 -1.375277 1.831619 4.643697 -0.322292 0.268093 0.484385 -1.414907 -0.535019 0.000000 0.000000 0.000000 3.211684 -1.062294 0.666297 15.607626 -3.589314 0.117351 29.015347 -3.939858 1.014523 0.000000 0.000000 0.000000 2.158593 -0.537008 0.237546 2.223023 -7.186429 -10.734172 1.931044 2.300700 -0.575098 59.749532 -16.843405 -29.863766 -4.699278 -40.880219 -2.960856 0.000000 0.000000 0.000000 2.783723 -1.398183 -0.109458 -3.739493 5.776915 19.956008 9.166320 7.025065 -3.809075 56.020433 21.603677 27.828477 -0.914135 24.403055 0.738063 0.000000 0.000000 0.000000 
4.992841 5.590462 85.472275 0.000000 0.000000 0.000000 -93.683059 -0.899180 -1.776139 -45.380552 -53.182199 38.224409 110.801590 -25.478784 -0.901922 6.188603 -4.373804 -22.074951 -8.357152 -0.090751 -2.730542 0.000000 0.000000 0.000000 -97.167302 3.491421 1.342690 -35.778580 0.471535 -32.887026 81.037872 13.213462 -2.047594 -6.436201 0.040213 26.322101 10.301800 0.581114 -0.529847 0.000000 0.000000 0.000000 -95.208466 1.591889 -1.218724 10.079039 -1.280259 1.953337 5.203074 -0.278421 0.207307 0.519755 -1.444163 -0.488818 0.000000 0.000000 0.000000 3.682358 -1.136661 0.584489 15.933762 -3.505110 0.129469 30.004341 -4.076680 1.156344 0.000000 0.000000 0.000000 2.723512 -0.631365 0.097622 3.007061 -3.937399 -12.078827 2.395094 1.370362 -0.283573 58.680273 -16.961388 -26.330062 -4.962419 -40.522095 -3.207320 0.000000 0.000000 0.000000 3.371336 -1.438350 -0.201623 -3.896312 6.496161 20.516934 8.857172 7.266380 -3.728374 53.936979 20.304593 28.054635 -0.898261 25.054292 0.755715 0.000000 0.000000 0.000000 
5.089316 5.651384 85.435555 0.000000 0.000000 0.000000 -93.037231 -1.070145 -2.053684 -48.319190 -52.776721 35.798507 111.683114 -24.711252 -0.909700 5.811499 -4.439817 -20.771749 -8.746473 -0.108006 -2.767984 0.000000 0.000000 0.000000 -96.507165 3.554723 1.213372 -34.161994 -1.282915 -32.473752 77.698641 12.689401 -1.798260 -6.630344 -0.139674 26.809980 9.789804 0.359687 -0.608674 0.000000 0.000000 0.000000 -94.276780 1.609058 -1.391135 10.484887 -1.115455 2.037586 5.812512 -0.236798 0.117184 0.672326 -1.526578 -0.451037 0.000000 0.000000 0.000000 4.160796 -1.195089 0.463490 15.973034 -3.370693 0.231245 30.881792 -4.119536 1.348474 0.000000 0.000000 0.000000 3.329305 -0.733810 -0.071014 3.945945 -0.406539 -13.264213 2.587773 0.426983 -0.120525 57.706670 -17.206297 -22.323230 -5.242038 -39.868671 -3.531061 0.000000 0.000000 0.000000 3.944170 -1.472140 -0.326215 -3.999940 7.044979 21.008369 8.799247 7.502254 -3.613310 51.642203 18.786184 28.498063 -0.859286 26.080203 0.771798 0.000000 0.000000 0.000000 
5.151788 5.683508 85.398102 0.000000 0.000000 0.000000 -92.125544 -1.217475 -2.266640 -51.339448 -52.231908 33.666921 112.482854 -23.945260 -0.890142 5.449611 -4.597709 -19.468269 -9.164008 -0.132876 -2.698407 0.000000 0.000000 0.000000 -95.689892 3.574197 1.107221 -32.846240 -2.739414 -31.820144 74.314569 12.093667 -1.463211 -6.470450 -0.250738 27.124370 9.385980 0.219475 -0.648686 0.000000 0.000000 0.000000 -93.168500 1.609234 -1.601995 10.885097 -0.909480 2.031031 6.446307 -0.197783 0.013321 0.828011 -1.505147 -0.405677 0.000000 0.000000 0.000000 4.649898 -1.230896 0.324173 15.737282 -3.201134 0.410043 31.581866 -4.100338 1.597666 0.000000 0.000000 0.000000 3.950805 -0.816498 -0.243370 4.978700 3.188998 -14.243285 2.568774 -0.489338 -0.052216 56.687695 -17.514656 -18.022007 -5.546523 -39.150801 -3.891786 0.000000 0.000000 0.000000 4.508042 -1.491253 -0.474539 -4.063500 7.412482 21.453643 8.975932 7.745961 -3.433418 49.126880 17.248519 29.206405 -0.777804 27.050411 0.761566 0.000000 0.000000 0.000000 
